<?xml version="1.0" encoding="utf-8"?>
<!-- Generator: Adobe Illustrator 27.5.0, SVG Export Plug-In . SVG Version: 6.00 Build 0)  -->
<svg version="1.1" xmlns="http://www.w3.org/2000/svg" xmlns:xlink="http://www.w3.org/1999/xlink" x="0px" y="0px"
	 viewBox="0 0 500 500" style="enable-background:new 0 0 500 500;" xml:space="preserve">
<g id="BACKGROUND">
	<rect style="fill:#F1F2F2;" width="500" height="500"/>
</g>
<g id="OBJECTS">
	<g>
		<g>
			<path style="fill:#2A2B2B;" d="M199.05,134.938l-41.26,28.028H81.652c0,0-8.833-0.249-8.833-8.833s7.216-9.828,7.216-9.828h79.87
				l48.334-32.595c0.608-0.41,0.969-1.099,0.959-1.833l0,0c-0.016-1.191-0.985-2.148-2.176-2.148h-78.468l-55.237,31.973
				c0,0-7.838,3.981-7.838,14.929c0,10.948,9.704,15.924,14.183,15.924c4.479,0,79.995,0.124,79.995,0.124l49.167-33.718
				c0.451-0.309,0.717-0.823,0.71-1.369l0,0c-0.012-0.895-0.74-1.614-1.635-1.614h-5.729
				C201.057,133.979,199.97,134.313,199.05,134.938z"/>
			<polygon style="fill:#FFFFFF;" points="85.887,139.812 131.093,112.599 193.698,112.599 189.683,114.681 131.539,114.681 
				90.051,139.812 			"/>
			<path style="fill:#FFFFFF;" d="M125.926,126.834c-0.323,0-0.585-0.262-0.585-0.585v-9.018c0-1.896-1.543-3.44-3.439-3.44
				s-3.44,1.543-3.44,3.44v0.153c0,0.324-0.262,0.585-0.585,0.585c-0.323,0-0.585-0.262-0.585-0.585v-0.153
				c0-2.542,2.068-4.61,4.61-4.61c2.542,0,4.61,2.068,4.61,4.61v9.018C126.511,126.572,126.25,126.834,125.926,126.834z"/>
			<path style="fill:#FFFFFF;" d="M131.123,123.267c-0.324,0-0.585-0.262-0.585-0.585v-9.018c0-1.896-1.543-3.44-3.44-3.44
				c-1.965,0-3.392,1.33-3.392,3.162c0,0.324-0.262,0.585-0.585,0.585s-0.585-0.262-0.585-0.585c0-2.47,1.962-4.333,4.562-4.333
				c2.542,0,4.61,2.068,4.61,4.61v9.018C131.709,123.005,131.447,123.267,131.123,123.267z"/>
			<path style="fill:#FFFFFF;" d="M126.029,121.128c-0.191,0-0.378-0.093-0.49-0.265c-0.177-0.271-0.101-0.633,0.17-0.81
				l4.993-3.261c0.27-0.178,0.634-0.101,0.81,0.17c0.177,0.271,0.101,0.633-0.17,0.81l-4.993,3.261
				C126.25,121.097,126.139,121.128,126.029,121.128z"/>
			<path style="fill:#FFFFFF;" d="M126.029,123.879c-0.191,0-0.378-0.093-0.49-0.265c-0.177-0.271-0.101-0.633,0.17-0.81
				l4.993-3.261c0.27-0.177,0.634-0.101,0.81,0.17c0.177,0.271,0.101,0.633-0.17,0.81l-4.993,3.261
				C126.25,123.848,126.139,123.879,126.029,123.879z"/>
			
				<text transform="matrix(1 0 0 1 62.3839 199.5879)" style="fill:#2A2B2B; font-family:'Gilroy-ExtraBold'; font-size:28.1056px;">POOLBOOK</text>
		</g>
		<g>
			
				<text transform="matrix(1 0 0 1 73.3264 216.6742)" style="fill:#2A2B2B; font-family:'Gilroy-Light'; font-size:14.3964px; letter-spacing:3;">TAGLINE HERE</text>
		</g>
	</g>
	<g>
		<g>
			<path style="fill:#2A2B2B;" d="M353.489,118.682v69.45c0,7.699-4.658,14.872-11.952,17.335c-2.547,0.86-5.465,1.183-8.717,0.515
				c-10.474-2.152-38.278-9.503-48.71-12.285c-2.382-0.635-4.03-2.79-4.03-5.255v-72.008c0-2.118,1.992-3.672,4.047-3.155
				l46.391,11.671c3.978,1.001,8.191,0.347,11.678-1.812l1.848-1.144c1.444-0.894,1.083-3.087-0.571-3.471l-44.741-10.394
				c-1.86-0.432-2.803-2.51-1.905-4.195l0,0c0.629-1.178,1.98-1.776,3.275-1.448l50.789,12.86
				C352.419,115.731,353.489,117.106,353.489,118.682z"/>
			<g>
				<polygon style="fill:#FFFFFF;" points="292.964,145.353 299.457,146.917 299.514,138.713 293.021,137.149 				"/>
				<polygon style="fill:#FFFFFF;" points="290.581,144.779 290.638,136.575 284.145,135.011 284.088,143.215 				"/>
				<polygon style="fill:#FFFFFF;" points="290.566,147.018 284.072,145.454 284.015,153.657 290.509,155.221 				"/>
				<polygon style="fill:#FFFFFF;" points="292.948,147.592 292.891,155.795 299.385,157.359 299.442,149.156 				"/>
			</g>
			<g>
				<polygon style="fill:#FFFFFF;" points="323.964,151.728 330.457,153.292 330.514,145.088 324.02,143.524 				"/>
				<polygon style="fill:#FFFFFF;" points="321.581,151.154 321.638,142.95 315.145,141.386 315.088,149.59 				"/>
				<polygon style="fill:#FFFFFF;" points="321.566,153.393 315.072,151.829 315.015,160.032 321.509,161.596 				"/>
				<polygon style="fill:#FFFFFF;" points="323.948,153.967 323.891,162.17 330.385,163.734 330.442,155.531 				"/>
			</g>
			<g>
				<polygon style="fill:#2A2B2B;" points="302.227,197.873 288.038,204.587 288.135,199.618 302.43,183.43 				"/>
				<polygon style="fill:#2A2B2B;" points="301.788,208.427 288.038,204.587 288.068,203.024 301.853,206.594 				"/>
				<polygon style="fill:#FFFFFF;" points="288.068,203.024 290.152,202.027 304.302,205.557 301.853,206.594 				"/>
				<polygon style="fill:#2A2B2B;" points="303.939,205.672 290.14,202.013 290.15,200.45 303.98,203.839 				"/>
				<polygon style="fill:#FFFFFF;" points="290.15,200.45 292.22,199.426 306.415,202.77 303.98,203.839 				"/>
				<polygon style="fill:#2A2B2B;" points="306.062,202.761 292.171,199.464 292.14,197.901 306.055,200.927 				"/>
				<polygon style="fill:#FFFFFF;" points="292.14,197.901 294.183,196.823 308.461,199.794 306.055,200.927 				"/>
				<polygon style="fill:#2A2B2B;" points="308.183,199.755 294.207,196.839 294.134,195.278 308.126,197.922 				"/>
				<polygon style="fill:#FFFFFF;" points="294.134,195.278 296.146,194.145 310.5,196.724 308.126,197.922 				"/>
				<polygon style="fill:#2A2B2B;" points="310.206,196.873 296.193,194.141 296.099,192.582 310.125,195.041 				"/>
				<polygon style="fill:#FFFFFF;" points="296.099,192.582 298.096,191.422 312.483,193.812 310.125,195.041 				"/>
				<polygon style="fill:#2A2B2B;" points="312.123,194.128 298.11,191.396 298.016,189.837 312.041,192.296 				"/>
				<polygon style="fill:#FFFFFF;" points="298.016,189.837 300.013,188.677 314.4,191.067 312.041,192.296 				"/>
				<polygon style="fill:#FFFFFF;" points="313.388,191.826 300.013,188.68 300.027,165.046 313.402,168.192 				"/>
				<polygon style="fill:#2A2B2B;" points="315.977,201.714 301.788,208.427 301.885,203.458 316.181,187.271 				"/>
			</g>
		</g>
		<text transform="matrix(1 0 0 1 359.316 152.0715)" style="fill:#2A2B2B; font-family:'BebasNeueBold'; font-size:51.7752px;">HOME</text>
		<text transform="matrix(1 0 0 1 359.316 195.9001)" style="fill:#2A2B2B; font-family:'BebasNeueBold'; font-size:51.7752px;">BOOK</text>
	</g>
	<g>
		<g>
			<rect x="61.221" y="348.059" style="fill:#A7A9AC;" width="48.4" height="35.094"/>
			<g>
				<g>
					<path style="fill:#2A2B2B;" d="M117.517,300.179v82.974H98.552v-32.952H72.476v32.952H53.511v-82.974h18.965v31.765h26.076
						v-31.765H117.517z"/>
				</g>
			</g>
			<path style="fill:#FFFFFF;" d="M72.476,350.201h6.766l17.157,3.063v32.659c0,0-1.159,2.152-3.365,2.703L72.476,350.201z"/>
			<polygon style="fill:#2A2B2B;" points="72.448,350.201 93.006,354.864 93.006,388.626 72.448,383.153 			"/>
			<polygon style="fill:#2A2B2B;" points="91.418,392.2 89.842,391.451 88.305,392.2 88.305,386.447 91.418,386.447 			"/>
		</g>
		<text transform="matrix(1 0 0 1 125.366 340.0502)" style="fill:#2A2B2B; font-family:'BebasNeueBold'; font-size:57.0844px;">HOME</text>
		<text transform="matrix(1 0 0 1 125.366 382.8607)" style="fill:#2A2B2B; font-family:'BebasNeueBold'; font-size:57.0844px;">BOOK</text>
	</g>
	<g>
		<g>
			<path style="fill:#2A2B2B;" d="M320.713,333.864c34.14,1.529,43.822,24.968,43.822,24.968s9.682-23.44,43.822-24.968
				l-0.844,17.442c3.52-6.719,5.522-14.359,5.522-22.471c0-26.786-21.714-48.5-48.5-48.5s-48.5,21.714-48.5,48.5
				c0,8.112,2.002,15.752,5.522,22.471L320.713,333.864z"/>
			<path style="fill:#BCBEC0;" d="M364.534,358.832c0,0,8.634-20.867,38.299-24.501l-0.842-9.894
				C364.284,337.941,364.534,358.832,364.534,358.832z"/>
			<path style="fill:#BCBEC0;" d="M327.05,324.364l-0.848,9.964c28.662,3.497,37.707,23.072,38.3,24.428
				c0.001,0.001,0.004,0.002,0.005,0.003C364.507,358.759,364.757,337.867,327.05,324.364z"/>
			<path style="fill:#FFFFFF;" d="M365.123,349.272c0,0,4.126-17.934,32.693-25.71C397.817,323.562,371.789,322.293,365.123,349.272
				z"/>
			<path style="fill:#FFFFFF;" d="M363.854,348.955c0,0-0.959-22.754-28.874-37.299l0.619,6.161
				C335.599,317.816,353.659,324.01,363.854,348.955z"/>
		</g>
		<g>
			
				<text transform="matrix(1 0 0 1 283.6615 384.8355)" style="fill:#2A2B2B; font-family:'Gilroy-ExtraBold'; font-size:28.1056px;">BOOKSTORE</text>
		</g>
		<g>
			
				<text transform="matrix(1 0 0 1 317.4594 401.1236)" style="fill:#2A2B2B; font-family:'Gilroy-Light'; font-size:10.3395px; letter-spacing:2;">TAGLINE HERE</text>
		</g>
	</g>
</g>
</svg>
